<?xml version="1.0" encoding="UTF-8"?>
<svg xmlns="http://www.w3.org/2000/svg" xmlns:xlink="http://www.w3.org/1999/xlink" width="599pt" height="464pt" viewBox="0 0 599 464" version="1.1">
<g id="surface1">
<path style=" stroke:none;fill-rule:nonzero;fill:rgb(94.901961%,94.901961%,94.901961%);fill-opacity:1;" d="M 26.554688 450.765625 C 45.21875 464.226562 69.40625 464.902344 92.785156 463.25 C 96.050781 463.019531 99.292969 462.75 102.503906 462.457031 C 102.523438 462.453125 102.546875 462.453125 102.566406 462.449219 C 102.722656 462.433594 102.878906 462.417969 103.023438 462.410156 C 103.6875 462.347656 104.351562 462.285156 105.007812 462.222656 L 104.851562 462.519531 L 104.367188 463.441406 C 104.539062 463.132812 104.714844 462.832031 104.890625 462.523438 C 104.941406 462.429688 105 462.339844 105.050781 462.246094 C 111.105469 451.691406 117.113281 440.75 118.644531 428.699219 C 120.230469 416.191406 115.777344 402.027344 104.785156 395.878906 C 103.34375 395.074219 101.816406 394.433594 100.230469 393.96875 C 99.574219 393.769531 98.910156 393.609375 98.234375 393.464844 C 89.839844 391.597656 81.089844 394.414062 75.355469 400.832031 C 69.625 407.25 67.796875 416.269531 70.582031 424.417969 C 61.257812 414.847656 63 399.320312 66.214844 386.34375 C 69.433594 373.367188 73.335938 358.929688 66.78125 347.273438 C 63.140625 340.789062 56.734375 336.761719 49.546875 335.140625 C 49.328125 335.09375 49.105469 335.046875 48.886719 335.003906 C 40.320312 333.269531 31.417969 334.832031 23.953125 339.378906 C 10.207031 348.054688 3.148438 364.496094 0.855469 380.605469 C -2.835938 406.527344 5.335938 435.457031 26.554688 450.765625 Z M 26.554688 450.765625 "/>
<path style=" stroke:none;fill-rule:nonzero;fill:rgb(100%,100%,100%);fill-opacity:1;" d="M 32.582031 409.210938 C 33.121094 414.929688 34.496094 420.539062 36.652344 425.859375 C 38.640625 430.566406 41.324219 434.953125 44.605469 438.867188 C 51.3125 446.949219 60.183594 453.023438 69.816406 457.070312 C 77.183594 460.089844 84.898438 462.167969 92.785156 463.25 C 96.050781 463.019531 99.292969 462.75 102.503906 462.457031 C 102.523438 462.453125 102.546875 462.453125 102.566406 462.449219 C 102.722656 462.433594 102.878906 462.417969 103.023438 462.410156 C 103.6875 462.347656 104.351562 462.285156 105.007812 462.222656 L 104.851562 462.519531 L 104.367188 463.441406 C 104.539062 463.132812 104.714844 462.832031 104.890625 462.523438 C 104.941406 462.429688 105 462.339844 105.050781 462.246094 C 93.054688 450.277344 87.597656 433.226562 90.417969 416.507812 C 91.871094 408.324219 95.234375 400.601562 100.230469 393.96875 C 99.574219 393.769531 98.910156 393.609375 98.234375 393.464844 C 96.335938 396.066406 94.667969 398.828125 93.253906 401.726562 C 88.179688 412.050781 86.5625 423.734375 88.636719 435.054688 C 90.566406 445.292969 95.375 454.773438 102.496094 462.375 C 101.871094 462.328125 101.242188 462.277344 100.628906 462.222656 C 88.957031 461.230469 77.308594 458.71875 66.726562 453.574219 C 57.675781 449.28125 49.820312 442.828125 43.851562 434.78125 C 37.441406 425.925781 34.617188 415.277344 34.128906 404.453125 C 33.617188 392.867188 35.117188 381.078125 37.757812 369.808594 C 40.453125 358.253906 44.554688 347.078125 49.960938 336.523438 C 50.210938 336.023438 50.03125 335.417969 49.546875 335.140625 C 49.351562 335.011719 49.113281 334.960938 48.886719 335.003906 C 48.65625 335.066406 48.46875 335.226562 48.375 335.441406 C 47.707031 336.746094 47.054688 338.050781 46.421875 339.371094 C 41.175781 350.359375 37.316406 361.960938 34.925781 373.90625 C 32.605469 385.425781 31.367188 397.480469 32.582031 409.210938 Z M 32.582031 409.210938 "/>
<path style=" stroke:none;fill-rule:nonzero;fill:rgb(24.705882%,23.921569%,33.72549%);fill-opacity:1;" d="M 586.773438 398.925781 L 278.09375 398.925781 C 271.464844 398.917969 266.089844 393.539062 266.082031 386.902344 L 266.082031 12.023438 C 266.089844 5.386719 271.464844 0.0078125 278.09375 0 L 586.773438 0 C 593.402344 0.0078125 598.777344 5.386719 598.78125 12.023438 L 598.78125 386.902344 C 598.777344 393.539062 593.402344 398.917969 586.773438 398.925781 Z M 278.09375 1.414062 C 272.242188 1.421875 267.503906 6.167969 267.496094 12.023438 L 267.496094 386.902344 C 267.503906 392.757812 272.242188 397.503906 278.09375 397.511719 L 586.773438 397.511719 C 592.625 397.503906 597.363281 392.757812 597.371094 386.902344 L 597.371094 12.023438 C 597.363281 6.167969 592.625 1.421875 586.773438 1.414062 Z M 278.09375 1.414062 "/>
<path style=" stroke:none;fill-rule:nonzero;fill:rgb(24.705882%,23.921569%,33.72549%);fill-opacity:1;" d="M 266.789062 29.417969 L 598.078125 29.417969 L 598.078125 30.832031 L 266.789062 30.832031 Z M 266.789062 29.417969 "/>
<path style=" stroke:none;fill-rule:nonzero;fill:rgb(24.705882%,23.921569%,33.72549%);fill-opacity:1;" d="M 288.6875 15.5625 C 288.6875 18.6875 286.15625 21.21875 283.035156 21.21875 C 279.914062 21.21875 277.386719 18.6875 277.386719 15.5625 C 277.386719 12.4375 279.914062 9.902344 283.035156 9.902344 C 286.15625 9.902344 288.6875 12.4375 288.6875 15.5625 Z M 288.6875 15.5625 "/>
<path style=" stroke:none;fill-rule:nonzero;fill:rgb(24.705882%,23.921569%,33.72549%);fill-opacity:1;" d="M 306.347656 15.5625 C 306.347656 18.6875 303.816406 21.21875 300.695312 21.21875 C 297.574219 21.21875 295.042969 18.6875 295.042969 15.5625 C 295.042969 12.4375 297.574219 9.902344 300.695312 9.902344 C 303.816406 9.902344 306.347656 12.4375 306.347656 15.5625 Z M 306.347656 15.5625 "/>
<path style=" stroke:none;fill-rule:nonzero;fill:rgb(24.705882%,23.921569%,33.72549%);fill-opacity:1;" d="M 324.007812 15.5625 C 324.007812 18.6875 321.476562 21.21875 318.355469 21.21875 C 315.234375 21.21875 312.703125 18.6875 312.703125 15.5625 C 312.703125 12.4375 315.234375 9.902344 318.355469 9.902344 C 321.476562 9.902344 324.007812 12.4375 324.007812 15.5625 Z M 324.007812 15.5625 "/>
<path style=" stroke:none;fill-rule:nonzero;fill:rgb(24.705882%,23.921569%,33.72549%);fill-opacity:1;" d="M 538.925781 85.585938 L 318.539062 85.585938 C 313.46875 85.585938 309.355469 81.46875 309.355469 76.390625 C 309.355469 71.3125 313.46875 67.195312 318.539062 67.195312 L 538.925781 67.195312 C 543.996094 67.195312 548.109375 71.3125 548.109375 76.390625 C 548.109375 81.46875 543.996094 85.585938 538.925781 85.585938 Z M 318.539062 68.609375 C 314.246094 68.609375 310.769531 72.09375 310.769531 76.390625 C 310.769531 80.6875 314.246094 84.171875 318.539062 84.171875 L 538.925781 84.171875 C 543.214844 84.171875 546.695312 80.6875 546.695312 76.390625 C 546.695312 72.09375 543.214844 68.609375 538.925781 68.609375 Z M 318.539062 68.609375 "/>
<path style=" stroke:none;fill-rule:nonzero;fill:rgb(24.705882%,23.921569%,33.72549%);fill-opacity:1;" d="M 401 215.023438 L 314.117188 215.023438 C 307.488281 215.015625 302.117188 209.636719 302.109375 203 L 302.109375 131.5625 C 302.117188 124.921875 307.488281 119.542969 314.117188 119.535156 L 401 119.535156 C 407.628906 119.542969 413 124.921875 413.007812 131.5625 L 413.007812 203 C 413 209.636719 407.628906 215.015625 401 215.023438 Z M 314.117188 120.953125 C 308.269531 120.957031 303.527344 125.703125 303.519531 131.5625 L 303.519531 203 C 303.527344 208.855469 308.269531 213.601562 314.117188 213.609375 L 401 213.609375 C 406.847656 213.601562 411.589844 208.855469 411.59375 203 L 411.59375 131.5625 C 411.589844 125.703125 406.847656 120.957031 401 120.953125 Z M 314.117188 120.953125 "/>
<path style=" stroke:none;fill-rule:nonzero;fill:rgb(94.901961%,94.901961%,94.901961%);fill-opacity:1;" d="M 463.867188 123.074219 L 550.75 123.074219 C 556.992188 123.074219 562.050781 128.140625 562.050781 134.390625 L 562.050781 205.828125 C 562.050781 212.078125 556.992188 217.144531 550.75 217.144531 L 463.867188 217.144531 C 457.625 217.144531 452.566406 212.078125 452.566406 205.828125 L 452.566406 134.390625 C 452.566406 128.140625 457.625 123.074219 463.867188 123.074219 Z M 463.867188 123.074219 "/>
<path style=" stroke:none;fill-rule:nonzero;fill:rgb(24.705882%,23.921569%,33.72549%);fill-opacity:1;" d="M 401 348 L 314.117188 348 C 307.488281 347.992188 302.117188 342.613281 302.109375 335.976562 L 302.109375 264.535156 C 302.117188 257.898438 307.488281 252.519531 314.117188 252.511719 L 401 252.511719 C 407.628906 252.519531 413 257.898438 413.007812 264.535156 L 413.007812 335.976562 C 413 342.613281 407.628906 347.992188 401 348 Z M 314.117188 253.925781 C 308.269531 253.933594 303.527344 258.679688 303.519531 264.535156 L 303.519531 335.976562 C 303.527344 341.832031 308.269531 346.578125 314.117188 346.585938 L 401 346.585938 C 406.847656 346.578125 411.589844 341.832031 411.59375 335.976562 L 411.59375 264.535156 C 411.589844 258.679688 406.847656 253.933594 401 253.925781 Z M 314.117188 253.925781 "/>
<path style=" stroke:none;fill-rule:nonzero;fill:rgb(94.901961%,94.901961%,94.901961%);fill-opacity:1;" d="M 463.867188 256.046875 L 550.75 256.046875 C 556.992188 256.046875 562.050781 261.117188 562.050781 267.367188 L 562.050781 338.804688 C 562.050781 345.054688 556.992188 350.121094 550.75 350.121094 L 463.867188 350.121094 C 457.625 350.121094 452.566406 345.054688 452.566406 338.804688 L 452.566406 267.367188 C 452.566406 261.117188 457.625 256.046875 463.867188 256.046875 Z M 463.867188 256.046875 "/>
<path style=" stroke:none;fill-rule:nonzero;fill:rgb(41.568627%,3.529412%,49.019608%);fill-opacity:1;" d="M 335.9375 197.746094 C 335.921875 197.746094 335.90625 197.746094 335.890625 197.746094 L 326.007812 197.378906 C 325.371094 197.359375 324.847656 196.871094 324.777344 196.238281 C 324.097656 190.160156 321.296875 159.195312 333.023438 146.324219 C 336.386719 142.5625 341.257812 140.511719 346.296875 140.742188 C 346.5 140.753906 346.699219 140.652344 346.804688 140.476562 L 349.195312 136.710938 C 349.464844 136.296875 349.945312 136.066406 350.433594 136.125 C 352.351562 136.355469 362.128906 137.453125 366.242188 136.261719 C 366.738281 136.113281 367.273438 136.277344 367.601562 136.679688 L 370.742188 140.523438 C 370.851562 140.664062 371.023438 140.742188 371.199219 140.734375 C 372.796875 140.703125 378.398438 141.015625 383.304688 146.503906 C 388.613281 152.453125 394.09375 165.867188 390.042969 196.015625 C 389.957031 196.65625 389.414062 197.132812 388.765625 197.136719 L 380.984375 197.136719 C 380.34375 197.132812 379.804688 196.664062 379.710938 196.03125 L 377.167969 178.464844 C 377.125 178.164062 376.859375 177.949219 376.558594 177.96875 C 376.253906 177.988281 376.019531 178.234375 376.011719 178.535156 L 375.835938 186.785156 C 375.824219 187.285156 375.527344 187.730469 375.070312 187.933594 C 372.296875 189.15625 357.636719 194.886719 341.433594 187.710938 C 340.984375 187.507812 340.691406 187.074219 340.667969 186.582031 L 340.351562 179.089844 C 340.335938 178.785156 340.09375 178.542969 339.789062 178.53125 C 339.488281 178.523438 339.226562 178.746094 339.191406 179.046875 L 337.21875 196.601562 C 337.140625 197.253906 336.59375 197.742188 335.9375 197.746094 Z M 335.9375 197.746094 "/>
<path style=" stroke:none;fill-rule:nonzero;fill:rgb(41.568627%,3.529412%,49.019608%);fill-opacity:1;" d="M 376.816406 327.160156 L 376.8125 327.160156 L 338.085938 326.917969 C 337.503906 326.910156 337.015625 326.472656 336.945312 325.894531 L 333.050781 292.742188 C 333.003906 292.296875 332.636719 291.960938 332.191406 291.945312 C 329.117188 291.847656 321.804688 291.144531 320.289062 286.808594 C 318.9375 282.949219 322.628906 277.253906 331.261719 269.882812 C 331.558594 269.628906 331.96875 269.539062 332.34375 269.652344 C 332.71875 269.765625 333.011719 270.0625 333.121094 270.4375 L 337.605469 285.917969 C 337.714844 286.300781 338.0625 286.5625 338.460938 286.566406 L 375.175781 286.8125 C 375.570312 286.816406 375.921875 286.5625 376.039062 286.183594 L 381.027344 270.300781 C 381.136719 269.9375 381.417969 269.65625 381.777344 269.542969 C 382.136719 269.429688 382.527344 269.496094 382.828125 269.726562 C 386.230469 272.328125 397.1875 281.261719 395.386719 286.972656 C 394.441406 289.964844 390.179688 291.632812 382.71875 291.929688 C 382.277344 291.945312 381.914062 292.285156 381.863281 292.722656 L 377.964844 326.140625 C 377.898438 326.722656 377.40625 327.164062 376.816406 327.160156 Z M 376.816406 327.160156 "/>
<path style=" stroke:none;fill-rule:nonzero;fill:rgb(100%,100%,100%);fill-opacity:1;" d="M 546.511719 187.546875 C 534.34375 189.894531 522.867188 194.980469 512.957031 202.429688 C 512.453125 201.09375 511.507812 199.96875 510.28125 199.246094 C 509.441406 198.726562 508.523438 198.339844 507.566406 198.105469 C 506.691406 197.882812 505.851562 198.414062 505.082031 199.179688 C 504.195312 200.160156 503.453125 201.261719 502.875 202.453125 C 489.578125 193.3125 469.40625 187.480469 469.40625 187.480469 L 469.40625 185.652344 C 469.421875 185.21875 469.464844 184.789062 469.535156 184.367188 C 469.605469 183.875 469.691406 183.441406 469.796875 182.910156 C 471.511719 174.191406 478.277344 154.273438 478.277344 154.273438 L 485.925781 154.273438 L 500.757812 157.355469 L 517.445312 156.335938 L 534.253906 152.832031 L 536.429688 152.375 C 540.066406 155.230469 544.191406 175.226562 545.808594 183.738281 C 546.015625 184.816406 546.175781 185.707031 546.296875 186.363281 C 546.4375 187.109375 546.511719 187.546875 546.511719 187.546875 Z M 546.511719 187.546875 "/>
<path style=" stroke:none;fill-rule:nonzero;fill:rgb(100%,100%,100%);fill-opacity:1;" d="M 500.863281 275.300781 C 500.863281 275.300781 497.308594 276.191406 491.800781 291.136719 C 486.289062 306.082031 484.335938 325.394531 484.335938 325.394531 C 484.335938 325.394531 481.238281 330.648438 494.464844 331 C 494.464844 331 493.402344 334.472656 500.863281 333.9375 C 508.328125 333.40625 507.253906 333.410156 507.253906 333.410156 C 507.253906 333.410156 512.050781 330.386719 514.183594 330.917969 C 516.316406 331.453125 517.648438 331.632812 519.957031 333.585938 C 522.265625 335.542969 529.648438 334.746094 529.734375 333.234375 C 529.792969 332.492188 529.792969 331.75 529.734375 331.007812 C 529.734375 331.007812 541.019531 331.71875 538.886719 323.535156 C 536.753906 315.347656 534.976562 301.910156 534.976562 301.910156 C 534.976562 301.910156 529.203125 275.664062 522.625 275.304688 C 516.042969 274.949219 500.863281 275.300781 500.863281 275.300781 Z M 500.863281 275.300781 "/>
<path style=" stroke:none;fill-rule:nonzero;fill:rgb(18.431373%,18.039216%,25.490196%);fill-opacity:1;" d="M 157.265625 228.886719 C 157.265625 240.605469 147.777344 250.105469 136.074219 250.105469 C 124.371094 250.105469 114.882812 240.605469 114.882812 228.886719 C 114.882812 217.164062 124.371094 207.664062 136.074219 207.664062 C 147.777344 207.664062 157.265625 217.164062 157.265625 228.886719 Z M 157.265625 228.886719 "/>
<path style=" stroke:none;fill-rule:nonzero;fill:rgb(100%,72.156863%,72.156863%);fill-opacity:1;" d="M 155.203125 232.773438 C 155.203125 242.367188 147.4375 250.144531 137.855469 250.144531 C 128.273438 250.144531 120.503906 242.367188 120.503906 232.773438 C 120.503906 223.179688 128.273438 215.398438 137.855469 215.398438 C 147.4375 215.398438 155.203125 223.179688 155.203125 232.773438 Z M 155.203125 232.773438 "/>
<path style=" stroke:none;fill-rule:nonzero;fill:rgb(100%,72.156863%,72.156863%);fill-opacity:1;" d="M 203.925781 285.613281 C 203.652344 285.890625 203.398438 286.1875 203.171875 286.507812 L 168.160156 285.269531 L 164.15625 277.75 L 152.035156 282.316406 L 157.832031 296.316406 C 158.792969 298.640625 161.171875 300.050781 163.667969 299.777344 L 203.285156 295.421875 C 205.167969 297.863281 208.367188 298.882812 211.316406 297.984375 C 214.265625 297.082031 216.347656 294.449219 216.550781 291.367188 C 216.753906 288.289062 215.03125 285.402344 212.226562 284.125 C 209.417969 282.84375 206.113281 283.4375 203.925781 285.613281 Z M 203.925781 285.613281 "/>
<path style=" stroke:none;fill-rule:nonzero;fill:rgb(80%,80%,80%);fill-opacity:1;" d="M 147.371094 289.078125 C 146.46875 288.671875 145.785156 287.894531 145.503906 286.941406 L 140.628906 270.554688 C 138.421875 265.828125 140.453125 260.210938 145.164062 257.988281 C 149.878906 255.769531 155.496094 257.785156 157.726562 262.496094 L 167.171875 276.808594 C 167.71875 277.636719 167.878906 278.660156 167.609375 279.613281 C 167.339844 280.566406 166.671875 281.355469 165.773438 281.777344 L 150.203125 289.054688 C 149.308594 289.476562 148.273438 289.484375 147.371094 289.078125 Z M 147.371094 289.078125 "/>
<path style=" stroke:none;fill-rule:nonzero;fill:rgb(100%,72.156863%,72.156863%);fill-opacity:1;" d="M 181.851562 455.460938 L 189.457031 451.3125 L 177.105469 419.964844 L 165.882812 426.082031 Z M 181.851562 455.460938 "/>
<path style=" stroke:none;fill-rule:nonzero;fill:rgb(18.431373%,18.039216%,25.490196%);fill-opacity:1;" d="M 178.558594 454.03125 L 193.539062 445.867188 C 198.8125 442.992188 205.410156 444.941406 208.28125 450.222656 L 208.449219 450.53125 L 183.925781 463.902344 Z M 178.558594 454.03125 "/>
<path style=" stroke:none;fill-rule:nonzero;fill:rgb(100%,72.156863%,72.156863%);fill-opacity:1;" d="M 98.15625 455.496094 L 106.816406 455.496094 L 110.9375 422.046875 L 98.152344 422.046875 Z M 98.15625 455.496094 "/>
<path style=" stroke:none;fill-rule:nonzero;fill:rgb(18.431373%,18.039216%,25.490196%);fill-opacity:1;" d="M 95.945312 452.664062 L 113.003906 452.664062 C 119.003906 452.664062 123.871094 457.535156 123.871094 463.546875 L 123.871094 463.898438 L 95.949219 463.902344 Z M 95.945312 452.664062 "/>
<path style=" stroke:none;fill-rule:nonzero;fill:rgb(18.431373%,18.039216%,25.490196%);fill-opacity:1;" d="M 151.96875 307.042969 L 154.792969 340.996094 L 186.3125 435.671875 C 186.5625 436.425781 186.484375 437.25 186.097656 437.941406 C 185.714844 438.636719 185.054688 439.136719 184.285156 439.320312 L 174.625 441.625 C 173.351562 441.925781 172.035156 441.316406 171.449219 440.144531 L 131.152344 360.109375 C 130.882812 359.574219 130.308594 359.269531 129.714844 359.34375 C 129.121094 359.417969 128.640625 359.859375 128.511719 360.441406 L 110.78125 441.332031 C 110.496094 442.632812 109.347656 443.554688 108.019531 443.554688 L 99.035156 443.554688 C 98.277344 443.554688 97.554688 443.253906 97.023438 442.714844 C 96.492188 442.175781 96.199219 441.445312 96.210938 440.6875 C 97.035156 384.601562 94.316406 320.6875 115.945312 310.582031 L 119.476562 301.386719 Z M 151.96875 307.042969 "/>
<path style=" stroke:none;fill-rule:nonzero;fill:rgb(80%,80%,80%);fill-opacity:1;" d="M 118.457031 303.792969 L 114.816406 281.742188 C 113.589844 274.390625 116.191406 266.921875 121.714844 261.929688 C 127.117188 256.988281 134.660156 255.140625 141.730469 257.035156 C 141.933594 257.089844 142.140625 257.144531 142.347656 257.203125 C 151.113281 259.71875 157.382812 267.441406 158.050781 276.546875 C 158.746094 286.121094 158.121094 300.015625 151.214844 311.820312 L 151.078125 312.050781 Z M 118.457031 303.792969 "/>
<path style=" stroke:none;fill-rule:nonzero;fill:rgb(18.431373%,18.039216%,25.490196%);fill-opacity:1;" d="M 155.113281 223.539062 C 151.148438 226.273438 146.445312 227.730469 141.628906 227.710938 C 143.347656 228.90625 145.300781 229.710938 147.359375 230.074219 C 140.957031 231.449219 134.339844 231.484375 127.925781 230.183594 C 126.5 229.953125 125.121094 229.480469 123.855469 228.785156 C 122.582031 228.070312 121.667969 226.847656 121.34375 225.421875 C 120.917969 222.980469 122.816406 220.765625 124.789062 219.273438 C 130.90625 214.710938 138.742188 213.144531 146.140625 215 C 148.523438 215.617188 150.914062 216.660156 152.460938 218.578125 C 154.011719 220.496094 154.46875 223.453125 152.992188 225.425781 Z M 155.113281 223.539062 "/>
<path style=" stroke:none;fill-rule:nonzero;fill:rgb(18.431373%,18.039216%,25.490196%);fill-opacity:1;" d="M 135.796875 207.5625 C 137.808594 199.429688 130.597656 190.394531 122.234375 190.566406 C 113.75 190.734375 107.503906 198.414062 103.210938 205.746094 C 98.917969 213.078125 94.652344 221.390625 86.773438 224.546875 C 81.476562 226.667969 75.46875 225.984375 70.78125 222.722656 C 66.097656 219.464844 63.363281 214.066406 63.5 208.351562 C 62.441406 217.261719 63.910156 226.898438 69.644531 233.789062 C 75.382812 240.679688 86.058594 243.78125 93.730469 239.152344 C 98.109375 236.507812 100.910156 231.910156 103.222656 227.339844 C 105.53125 222.769531 107.585938 217.949219 111.082031 214.210938 C 114.582031 210.472656 119.992188 207.992188 124.863281 209.5625 C 126.796875 210.1875 128.527344 211.40625 130.527344 211.773438 C 132.523438 212.144531 135.035156 211.195312 135.308594 209.179688 Z M 135.796875 207.5625 "/>
<path style=" stroke:none;fill-rule:nonzero;fill:rgb(100%,72.156863%,72.156863%);fill-opacity:1;" d="M 93.980469 354.996094 C 92.523438 353.285156 91.898438 351.015625 92.269531 348.796875 C 92.644531 346.582031 93.980469 344.644531 95.917969 343.507812 L 110.96875 275.960938 L 126.234375 282.234375 L 106.640625 346.65625 C 108.371094 350.121094 107.238281 354.328125 104.007812 356.457031 C 100.78125 358.585938 96.472656 357.957031 93.980469 354.996094 Z M 93.980469 354.996094 "/>
<path style=" stroke:none;fill-rule:nonzero;fill:rgb(80%,80%,80%);fill-opacity:1;" d="M 105.003906 285.648438 C 104.519531 284.789062 104.433594 283.753906 104.769531 282.824219 L 110.554688 266.734375 C 111.582031 261.621094 116.546875 258.304688 121.65625 259.316406 C 126.765625 260.328125 130.089844 265.292969 129.09375 270.410156 L 128.214844 287.542969 C 128.164062 288.535156 127.683594 289.453125 126.902344 290.058594 C 126.121094 290.667969 125.117188 290.902344 124.144531 290.710938 L 107.296875 287.316406 C 106.328125 287.121094 105.492188 286.515625 105.003906 285.648438 Z M 105.003906 285.648438 "/>
<path style=" stroke:none;fill-rule:nonzero;fill:rgb(24.705882%,23.921569%,33.72549%);fill-opacity:1;" d="M 228.308594 278.074219 L 228.058594 278.039062 L 229.003906 271.164062 C 229.304688 268.964844 227.769531 266.9375 225.574219 266.636719 L 211.023438 264.632812 C 208.828125 264.332031 206.804688 265.867188 206.5 268.066406 L 201.320312 305.792969 C 201.019531 307.992188 202.554688 310.019531 204.75 310.324219 L 219.300781 312.324219 C 221.496094 312.628906 223.519531 311.089844 223.824219 308.890625 L 227.386719 282.9375 L 227.636719 282.96875 Z M 228.308594 278.074219 "/>
<path style=" stroke:none;fill-rule:nonzero;fill:rgb(100%,100%,100%);fill-opacity:1;" d="M 225.117188 268.652344 L 223.304688 268.402344 C 223.417969 268.84375 223.304688 269.308594 223.003906 269.644531 C 222.703125 269.984375 222.253906 270.148438 221.804688 270.089844 L 213.851562 268.992188 C 213.40625 268.933594 213.015625 268.652344 212.816406 268.246094 C 212.621094 267.835938 212.636719 267.359375 212.863281 266.964844 L 211.171875 266.734375 C 209.605469 266.519531 208.164062 267.613281 207.949219 269.179688 L 203.015625 305.113281 C 202.800781 306.679688 203.894531 308.125 205.457031 308.339844 L 219.40625 310.257812 C 220.96875 310.472656 222.410156 309.378906 222.625 307.8125 L 227.558594 271.878906 C 227.773438 270.3125 226.679688 268.867188 225.117188 268.652344 Z M 225.117188 268.652344 "/>
<path style=" stroke:none;fill-rule:nonzero;fill:rgb(41.568627%,3.529412%,49.019608%);fill-opacity:1;" d="M 222.996094 290.707031 C 222.996094 295.003906 219.515625 298.488281 215.226562 298.488281 C 210.933594 298.488281 207.457031 295.003906 207.457031 290.707031 C 207.457031 286.410156 210.933594 282.925781 215.226562 282.925781 C 219.515625 282.925781 222.996094 286.410156 222.996094 290.707031 Z M 222.996094 290.707031 "/>
<path style=" stroke:none;fill-rule:nonzero;fill:rgb(100%,100%,100%);fill-opacity:1;" d="M 214.457031 293.675781 C 214.28125 293.675781 214.109375 293.617188 213.96875 293.515625 L 213.960938 293.507812 L 212.136719 292.109375 C 211.90625 291.929688 211.785156 291.644531 211.824219 291.355469 C 211.859375 291.066406 212.046875 290.820312 212.316406 290.710938 C 212.585938 290.597656 212.890625 290.640625 213.121094 290.816406 L 214.304688 291.726562 L 217.101562 288.074219 C 217.371094 287.71875 217.882812 287.652344 218.238281 287.925781 L 218.21875 287.949219 L 218.238281 287.925781 C 218.59375 288.199219 218.660156 288.707031 218.386719 289.066406 L 215.101562 293.359375 C 214.945312 293.558594 214.707031 293.675781 214.457031 293.675781 Z M 214.457031 293.675781 "/>
<path style=" stroke:none;fill-rule:nonzero;fill:rgb(24.705882%,23.921569%,33.72549%);fill-opacity:1;" d="M 286.839844 464 L 17.710938 464 C 17.320312 464 17.003906 463.683594 17.003906 463.292969 C 17.003906 462.902344 17.320312 462.585938 17.710938 462.585938 L 286.839844 462.585938 C 287.226562 462.585938 287.542969 462.902344 287.542969 463.292969 C 287.542969 463.683594 287.226562 464 286.839844 464 Z M 286.839844 464 "/>
</g>
</svg>
