<?xml version="1.0" encoding="UTF-8"?>
<svg xmlns="http://www.w3.org/2000/svg" xmlns:xlink="http://www.w3.org/1999/xlink" width="701pt" height="438pt" viewBox="0 0 701 438" version="1.1">
<g id="surface1">
<path style=" stroke:none;fill-rule:nonzero;fill:rgb(81.568627%,80.392157%,88.235294%);fill-opacity:1;" d="M 317.996094 402.878906 L 368.132812 402.878906 C 374.527344 402.878906 379.71875 408.089844 379.71875 414.503906 L 379.71875 426.71875 C 379.71875 433.136719 374.527344 438.34375 368.132812 438.34375 L 317.996094 438.34375 C 311.617188 438.34375 306.425781 433.136719 306.425781 426.71875 L 306.425781 414.503906 C 306.425781 408.089844 311.617188 402.878906 317.996094 402.878906 Z M 317.996094 402.878906 "/>
<path style=" stroke:none;fill-rule:nonzero;fill:rgb(24.705882%,23.921569%,33.72549%);fill-opacity:1;" d="M 120.046875 433.890625 L 569.289062 433.890625 L 569.289062 435.492188 L 120.046875 435.492188 Z M 120.046875 433.890625 "/>
<path style=" stroke:none;fill-rule:nonzero;fill:rgb(24.705882%,23.921569%,33.72549%);fill-opacity:1;" d="M 356.851562 399.765625 L 356.457031 398.945312 C 356.332031 398.699219 344.351562 373.527344 351.035156 348.714844 C 357.714844 323.898438 380.675781 308.230469 380.910156 308.078125 L 381.660156 307.570312 L 382.074219 308.394531 C 382.183594 308.652344 394.160156 333.8125 387.496094 358.625 C 380.8125 383.4375 357.851562 399.109375 357.621094 399.261719 Z M 381.019531 309.957031 C 377.007812 312.902344 358.398438 327.464844 352.582031 349.125 C 346.734375 370.8125 355.511719 392.800781 357.496094 397.382812 C 361.523438 394.433594 380.128906 379.875 385.945312 358.214844 C 391.78125 336.527344 383.03125 314.535156 381.019531 309.957031 Z M 381.019531 309.957031 "/>
<path style=" stroke:none;fill-rule:nonzero;fill:rgb(41.568627%,3.529412%,49.019608%);fill-opacity:1;" d="M 325.980469 358.417969 C 332.644531 383.21875 355.523438 398.601562 355.523438 398.601562 C 355.523438 398.601562 367.574219 373.734375 360.890625 348.917969 C 354.210938 324.117188 331.347656 308.75 331.347656 308.75 C 331.347656 308.75 319.3125 333.605469 325.980469 358.417969 Z M 325.980469 358.417969 "/>
<path style=" stroke:none;fill-rule:nonzero;fill:rgb(24.705882%,23.921569%,33.72549%);fill-opacity:1;" d="M 357.222656 399.425781 L 356.304688 399.371094 C 356.03125 399.355469 328.320312 397.640625 310 379.710938 C 291.683594 361.777344 289.230469 333.988281 289.203125 333.714844 L 289.136719 332.796875 L 290.039062 332.851562 C 290.328125 332.863281 318.023438 334.578125 336.34375 352.511719 C 354.664062 370.441406 357.125 398.230469 357.140625 398.519531 Z M 290.886719 334.523438 C 291.488281 339.488281 295.105469 362.917969 311.125 378.558594 C 327.113281 394.226562 350.5 397.230469 355.457031 397.695312 C 354.855469 392.734375 351.238281 369.320312 335.234375 353.664062 C 319.230469 337.992188 295.84375 334.988281 290.886719 334.523438 Z M 290.886719 334.523438 "/>
<path style=" stroke:none;fill-rule:nonzero;fill:rgb(24.705882%,23.921569%,33.72549%);fill-opacity:1;" d="M 376.898438 353.085938 C 358.578125 371.019531 356.347656 398.574219 356.347656 398.574219 C 356.347656 398.574219 383.8125 397.066406 402.128906 379.132812 C 420.464844 361.203125 422.695312 333.660156 422.695312 333.660156 C 422.695312 333.660156 395.230469 335.15625 376.898438 353.085938 Z M 376.898438 353.085938 "/>
<path style=" stroke:none;fill-rule:nonzero;fill:rgb(41.568627%,3.529412%,49.019608%);fill-opacity:1;" d="M 367.914062 242.203125 C 367.914062 248.828125 362.574219 254.214844 355.960938 254.214844 C 349.363281 254.214844 344.023438 248.828125 344.023438 242.203125 C 344.023438 235.570312 349.363281 230.179688 355.960938 230.179688 C 362.574219 230.179688 367.914062 235.570312 367.914062 242.203125 Z M 367.914062 242.203125 "/>
<path style=" stroke:none;fill-rule:nonzero;fill:rgb(24.705882%,23.921569%,33.72549%);fill-opacity:1;" d="M 387.027344 435.824219 L 327.785156 435.824219 C 319.953125 435.808594 313.601562 429.433594 313.601562 421.566406 L 313.601562 406.855469 C 313.601562 398.972656 319.953125 392.597656 327.785156 392.582031 L 387.027344 392.582031 C 394.859375 392.597656 401.214844 398.972656 401.214844 406.855469 L 401.214844 421.566406 C 401.214844 429.433594 394.859375 435.808594 387.027344 435.824219 Z M 327.785156 394.1875 C 320.832031 394.199219 315.203125 399.847656 315.191406 406.855469 L 315.191406 421.566406 C 315.203125 428.558594 320.832031 434.207031 327.785156 434.21875 L 387.027344 434.21875 C 393.984375 434.207031 399.609375 428.558594 399.625 421.566406 L 399.625 406.855469 C 399.609375 399.847656 393.984375 394.199219 387.027344 394.1875 Z M 327.785156 394.1875 "/>
<path style=" stroke:none;fill-rule:nonzero;fill:rgb(41.568627%,3.529412%,49.019608%);fill-opacity:1;" d="M 0 69.535156 L 239.640625 69.535156 L 239.640625 274.160156 L 0 274.160156 Z M 0 69.535156 "/>
<path style=" stroke:none;fill-rule:nonzero;fill:rgb(100%,39.607843%,51.764706%);fill-opacity:1;" d="M 57.996094 43.226562 C 57.996094 50.21875 52.382812 55.867188 45.441406 55.867188 C 38.5 55.867188 32.875 50.21875 32.875 43.226562 C 32.875 36.261719 38.5 30.597656 45.441406 30.597656 C 52.382812 30.597656 57.996094 36.261719 57.996094 43.226562 Z M 57.996094 43.226562 "/>
<path style=" stroke:none;fill-rule:nonzero;fill:rgb(24.705882%,23.921569%,33.72549%);fill-opacity:1;" d="M 286.765625 246.976562 L 44.523438 246.976562 L 44.523438 39.730469 L 286.765625 39.730469 Z M 47.125 244.355469 L 284.164062 244.355469 L 284.164062 42.347656 L 47.125 42.347656 Z M 47.125 244.355469 "/>
<path style=" stroke:none;fill-rule:nonzero;fill:rgb(24.705882%,23.921569%,33.72549%);fill-opacity:1;" d="M 258.410156 119.640625 C 258.398438 153.984375 239.628906 185.558594 209.535156 201.816406 C 208.410156 202.40625 207.289062 202.996094 206.152344 203.542969 C 180.464844 216.046875 150.496094 216.003906 124.839844 203.40625 C 122.660156 202.324219 120.539062 201.171875 118.457031 199.9375 C 116.335938 198.691406 114.28125 197.347656 112.296875 195.933594 C 85.640625 177.085938 70.769531 145.582031 73.125 112.910156 C 75.46875 80.242188 94.703125 51.203125 123.769531 36.414062 C 129.425781 33.535156 135.351562 31.242188 141.472656 29.585938 C 144.171875 28.859375 146.910156 28.253906 149.703125 27.761719 C 154.972656 26.84375 160.300781 26.390625 165.636719 26.390625 C 166.734375 26.390625 167.828125 26.40625 168.925781 26.460938 C 169.71875 26.472656 170.527344 26.515625 171.320312 26.570312 C 179.671875 27.0625 187.914062 28.707031 195.828125 31.449219 C 196.5 31.667969 197.183594 31.914062 197.855469 32.164062 C 200.195312 33.027344 202.46875 33.984375 204.714844 35.054688 C 237.464844 50.339844 258.410156 83.339844 258.410156 119.640625 Z M 258.410156 119.640625 "/>
<path style=" stroke:none;fill-rule:nonzero;fill:rgb(18.431373%,18.039216%,25.490196%);fill-opacity:1;" d="M 201.851562 24.28125 C 193.417969 4.261719 171.921875 0.480469 171.921875 0.480469 C 171.921875 0.480469 151.234375 -5.058594 133.957031 21.359375 C 117.871094 45.980469 97.097656 69.054688 123.429688 78.882812 L 130.398438 64.1875 L 131.21875 81.089844 C 135.050781 81.898438 138.925781 82.488281 142.816406 82.875 C 172.03125 85.847656 199.566406 90.8125 200.074219 80.199219 C 200.742188 66.09375 209.972656 43.542969 201.851562 24.28125 Z M 201.851562 24.28125 "/>
<path style=" stroke:none;fill-rule:nonzero;fill:rgb(100%,72.156863%,72.156863%);fill-opacity:1;" d="M 126.835938 187.433594 L 126.152344 192.972656 L 124.839844 203.40625 C 122.660156 202.324219 120.539062 201.171875 118.457031 199.9375 C 116.335938 198.691406 114.28125 197.347656 112.296875 195.933594 L 112.503906 190.5625 L 112.734375 184.582031 L 122.265625 186.515625 Z M 126.835938 187.433594 "/>
<path style=" stroke:none;fill-rule:nonzero;fill:rgb(100%,72.156863%,72.156863%);fill-opacity:1;" d="M 222.8125 193.097656 C 218.636719 196.375 214.1875 199.292969 209.535156 201.816406 L 205.027344 186.148438 L 204.425781 184.078125 L 202.960938 178.921875 L 204.550781 178.675781 L 220.816406 176.097656 L 221.335938 180.539062 Z M 222.8125 193.097656 "/>
<path style=" stroke:none;fill-rule:nonzero;fill:rgb(100%,72.156863%,72.156863%);fill-opacity:1;" d="M 197.320312 40.058594 C 197.320312 54.136719 185.957031 65.558594 171.9375 65.558594 C 157.917969 65.558594 146.566406 54.136719 146.566406 40.058594 C 146.566406 25.964844 157.917969 14.546875 171.9375 14.546875 C 185.957031 14.546875 197.320312 25.964844 197.320312 40.058594 Z M 197.320312 40.058594 "/>
<path style=" stroke:none;fill-rule:nonzero;fill:rgb(100%,72.156863%,72.156863%);fill-opacity:1;" d="M 154.546875 49.972656 C 154.546875 49.972656 156.4375 82.09375 150.796875 83.984375 C 145.15625 85.875 179.933594 83.984375 179.933594 83.984375 C 179.933594 83.984375 175.222656 64.144531 179.933594 58.472656 C 184.628906 52.808594 154.546875 49.972656 154.546875 49.972656 Z M 154.546875 49.972656 "/>
<path style=" stroke:none;fill-rule:nonzero;fill:rgb(81.568627%,80.392157%,88.235294%);fill-opacity:1;" d="M 180.398438 78.789062 C 180.398438 78.789062 155.957031 76.894531 151.261719 78.789062 C 146.566406 80.679688 133.410156 90.125 133.410156 90.125 L 139.980469 149.636719 L 193.554688 160.976562 L 202.015625 148.691406 L 210.476562 130.746094 L 206.710938 108.070312 L 205.769531 94.855469 Z M 180.398438 78.789062 "/>
<path style=" stroke:none;fill-rule:nonzero;fill:rgb(81.568627%,80.392157%,88.235294%);fill-opacity:1;" d="M 128.714844 93.910156 C 128.714844 93.910156 116.488281 96.734375 115.554688 106.179688 C 114.609375 115.625 114.609375 139.246094 115.554688 143.015625 C 116.488281 146.800781 115.554688 148.691406 114.609375 149.636719 C 113.667969 150.585938 111.789062 148.691406 113.667969 151.53125 C 115.554688 154.355469 115.554688 154.367188 114.609375 157.191406 C 113.667969 160.03125 110.859375 156.246094 112.734375 160.976562 C 114.609375 165.691406 115.554688 166.636719 114.609375 167.585938 C 113.667969 168.53125 110.859375 190.257812 110.859375 190.257812 L 126.835938 193.097656 L 142.800781 137.355469 Z M 128.714844 93.910156 "/>
<path style=" stroke:none;fill-rule:nonzero;fill:rgb(81.568627%,80.392157%,88.235294%);fill-opacity:1;" d="M 202.015625 93.910156 C 205.644531 94.101562 208.890625 96.269531 210.476562 99.570312 C 213.296875 105.234375 220.816406 142.085938 219.871094 144.910156 C 218.925781 147.746094 217.050781 143.976562 218.925781 149.636719 C 220.816406 155.300781 218.925781 154.367188 219.871094 158.136719 C 220.816406 161.921875 216.105469 158.136719 219.871094 161.921875 C 223.621094 165.691406 225.511719 166.636719 223.621094 168.53125 C 221.746094 170.421875 218.925781 166.636719 221.746094 170.421875 C 224.566406 174.191406 224.566406 179.867188 224.566406 179.867188 L 202.015625 184.582031 L 195.429688 131.691406 Z M 202.015625 93.910156 "/>
<path style=" stroke:none;fill-rule:nonzero;fill:rgb(18.431373%,18.039216%,25.490196%);fill-opacity:1;" d="M 205.027344 186.148438 L 206.152344 203.542969 C 180.464844 216.046875 150.496094 216.003906 124.839844 203.40625 C 122.660156 202.324219 120.539062 201.171875 118.457031 199.9375 C 119.171875 197.265625 119.910156 194.605469 120.648438 192 C 121.183594 190.136719 121.714844 188.3125 122.265625 186.515625 C 126.480469 172.628906 131.027344 160.839844 135.285156 156.246094 C 135.285156 156.246094 135.285156 145.855469 137.160156 144.910156 C 137.859375 144.550781 138.558594 143.441406 139.160156 142.167969 C 139.871094 140.605469 140.445312 139 140.9375 137.355469 L 137.816406 130.089844 L 123.90625 97.515625 C 123.085938 95.582031 123.90625 93.347656 125.769531 92.402344 L 130.382812 90.085938 C 131.328125 89.605469 132.410156 89.535156 133.410156 89.878906 C 134.421875 90.222656 135.230469 90.933594 135.695312 91.878906 L 156.902344 135.476562 L 180.398438 150.585938 L 196.867188 143.222656 L 197.308594 143.015625 C 197.308594 143.015625 209.535156 124.125 205.769531 114.679688 C 204.167969 110.648438 202.398438 105.261719 200.878906 100.40625 C 199.992188 97.542969 199.210938 94.855469 198.582031 92.746094 C 198.386719 92.058594 198.636719 91.320312 199.210938 90.894531 C 199.785156 90.480469 200.550781 90.453125 201.140625 90.851562 L 204.34375 93.003906 C 205.070312 93.484375 205.644531 94.183594 206 94.980469 C 206.152344 95.292969 206.261719 95.625 206.328125 95.964844 L 213.285156 129.800781 L 203.890625 149.636719 L 203.890625 168.53125 L 204.550781 178.675781 L 204.890625 183.980469 Z M 205.027344 186.148438 "/>
<path style=" stroke:none;fill-rule:nonzero;fill:rgb(18.431373%,18.039216%,25.490196%);fill-opacity:1;" d="M 197.074219 17.011719 L 175.550781 5.675781 L 145.8125 10.308594 L 139.667969 37.632812 L 154.972656 37.027344 L 159.257812 26.992188 L 159.257812 36.863281 L 166.324219 36.589844 L 170.429688 20.617188 L 172.992188 37.632812 L 198.113281 37.113281 Z M 197.074219 17.011719 "/>
<path style=" stroke:none;fill-rule:nonzero;fill:rgb(100%,72.156863%,72.156863%);fill-opacity:1;" d="M 148.921875 40.058594 C 148.921875 37.316406 147.648438 35.097656 146.101562 35.097656 C 144.539062 35.097656 143.28125 37.316406 143.28125 40.058594 C 143.28125 42.800781 144.539062 45.023438 146.101562 45.023438 C 147.648438 45.023438 148.921875 42.800781 148.921875 40.058594 Z M 148.921875 40.058594 "/>
<path style=" stroke:none;fill-rule:nonzero;fill:rgb(100%,39.607843%,51.764706%);fill-opacity:1;" d="M 435.304688 91.179688 C 435.304688 98.160156 429.675781 103.808594 422.734375 103.808594 C 415.792969 103.808594 410.167969 98.160156 410.167969 91.179688 C 410.167969 84.203125 415.792969 78.542969 422.734375 78.542969 C 429.675781 78.542969 435.304688 84.203125 435.304688 91.179688 Z M 435.304688 91.179688 "/>
<path style=" stroke:none;fill-rule:nonzero;fill:rgb(41.568627%,3.529412%,49.019608%);fill-opacity:1;" d="M 700.464844 323.417969 L 460.824219 323.417969 L 460.824219 118.792969 L 700.464844 118.792969 Z M 700.464844 323.417969 "/>
<path style=" stroke:none;fill-rule:nonzero;fill:rgb(24.705882%,23.921569%,33.72549%);fill-opacity:1;" d="M 663.117188 296.234375 L 420.875 296.234375 L 420.875 88.988281 L 663.117188 88.988281 Z M 423.476562 293.613281 L 660.527344 293.613281 L 660.527344 91.59375 L 423.476562 91.59375 Z M 423.476562 293.613281 "/>
<path style=" stroke:none;fill-rule:nonzero;fill:rgb(24.705882%,23.921569%,33.72549%);fill-opacity:1;" d="M 634.132812 152.367188 C 634.117188 186.722656 615.347656 218.28125 585.238281 234.539062 C 584.128906 235.144531 583.007812 235.734375 581.855469 236.28125 C 556.1875 248.8125 526.1875 248.757812 500.558594 236.132812 C 498.367188 235.0625 496.257812 233.898438 494.175781 232.664062 C 492.054688 231.414062 489.988281 230.085938 488.003906 228.660156 C 461.34375 209.824219 446.476562 178.304688 448.832031 145.636719 C 451.1875 112.964844 470.410156 83.941406 499.488281 69.148438 C 502.269531 67.726562 505.144531 66.4375 508.089844 65.285156 C 511.074219 64.144531 514.113281 63.160156 517.179688 62.324219 C 519.890625 61.597656 522.613281 60.980469 525.421875 60.484375 C 526.230469 60.347656 527.035156 60.210938 527.859375 60.101562 C 532.335938 59.457031 536.839844 59.113281 541.359375 59.113281 C 542.453125 59.113281 543.546875 59.128906 544.644531 59.183594 C 545.4375 59.199219 546.246094 59.238281 547.027344 59.292969 C 554.953125 59.773438 562.785156 61.28125 570.316406 63.761719 C 570.738281 63.886719 571.152344 64.023438 571.546875 64.160156 C 572.21875 64.40625 572.902344 64.652344 573.558594 64.902344 C 575.902344 65.765625 578.1875 66.722656 580.417969 67.78125 C 582.910156 68.945312 585.335938 70.207031 587.71875 71.605469 C 616.441406 88.234375 634.144531 119.039062 634.132812 152.367188 Z M 634.132812 152.367188 "/>
<path style=" stroke:none;fill-rule:nonzero;fill:rgb(18.431373%,18.039216%,25.490196%);fill-opacity:1;" d="M 581.761719 40.15625 C 571.316406 22.414062 550.667969 21.59375 550.667969 21.59375 C 550.667969 21.59375 530.542969 19 517.617188 46.007812 C 505.597656 71.191406 488.976562 95.5 514.949219 101.394531 L 519.644531 86.710938 L 522.546875 102.476562 C 526.242188 102.753906 529.96875 102.808594 533.664062 102.671875 C 561.472656 101.777344 587.964844 102.945312 587.113281 92.910156 C 585.976562 79.570312 591.8125 57.210938 581.761719 40.15625 Z M 581.761719 40.15625 "/>
<path style=" stroke:none;fill-rule:nonzero;fill:rgb(62.745098%,38.039216%,41.568627%);fill-opacity:1;" d="M 527.613281 208.738281 L 519.382812 200.855469 L 502.488281 179.019531 L 490.234375 184.816406 L 510.128906 210.5625 L 518.753906 222.023438 L 518.765625 222.078125 C 518.765625 222.078125 532.855469 239.066406 542.507812 231.785156 C 552.160156 224.503906 527.613281 208.738281 527.613281 208.738281 Z M 527.613281 208.738281 "/>
<path style=" stroke:none;fill-rule:nonzero;fill:rgb(62.745098%,38.039216%,41.568627%);fill-opacity:1;" d="M 598.808594 181.648438 L 590.566406 173.765625 L 581.308594 183.472656 L 589.933594 194.921875 L 589.960938 195.003906 C 589.960938 195.003906 604.039062 211.976562 613.691406 204.695312 C 623.34375 197.414062 598.808594 181.648438 598.808594 181.648438 Z M 598.808594 181.648438 "/>
<path style=" stroke:none;fill-rule:nonzero;fill:rgb(81.176471%,80%,87.843137%);fill-opacity:1;" d="M 581.71875 162.855469 L 596.207031 176.195312 L 586.949219 181.445312 L 573.667969 165.28125 Z M 581.71875 162.855469 "/>
<path style=" stroke:none;fill-rule:nonzero;fill:rgb(81.176471%,80%,87.843137%);fill-opacity:1;" d="M 582.515625 100.1875 C 582.515625 100.1875 588.15625 95.335938 590.566406 111.101562 C 592.976562 126.867188 586.539062 132.527344 586.539062 132.527344 Z M 582.515625 100.1875 "/>
<path style=" stroke:none;fill-rule:nonzero;fill:rgb(62.745098%,38.039216%,41.568627%);fill-opacity:1;" d="M 570.453125 61.378906 C 570.453125 73.207031 560.910156 82.804688 549.148438 82.804688 C 537.359375 82.804688 527.832031 73.207031 527.832031 61.378906 C 527.832031 49.53125 537.359375 39.9375 549.148438 39.9375 C 560.910156 39.9375 570.453125 49.53125 570.453125 61.378906 Z M 570.453125 61.378906 "/>
<path style=" stroke:none;fill-rule:nonzero;fill:rgb(62.745098%,38.039216%,41.568627%);fill-opacity:1;" d="M 536.265625 73.496094 C 536.265625 73.496094 533.457031 87.246094 522.191406 88.863281 C 510.9375 90.480469 493.234375 96.144531 495.65625 107.058594 C 498.066406 117.96875 565.632812 116.761719 565.632812 116.761719 L 577.695312 98.160156 C 577.695312 98.160156 552.761719 91.6875 555.171875 77.144531 Z M 536.265625 73.496094 "/>
<path style=" stroke:none;fill-rule:nonzero;fill:rgb(81.176471%,80%,87.843137%);fill-opacity:1;" d="M 569.453125 95.128906 C 569.453125 95.128906 553.570312 107.058594 516.164062 106.25 C 516.164062 106.25 495.027344 109.675781 498.148438 98.667969 C 498.148438 98.667969 495.65625 94.9375 493.234375 106.660156 C 490.824219 118.382812 472.722656 158.398438 474.339844 160.015625 L 480.363281 166.089844 L 493.628906 191.960938 L 507.71875 183.871094 L 502.886719 173.371094 C 502.886719 173.371094 512.140625 181.046875 516.5625 169.722656 C 516.5625 169.722656 520.175781 180.648438 527.832031 181.046875 C 535.472656 181.445312 584.9375 167.296875 584.9375 167.296875 C 584.9375 167.296875 582.117188 155.972656 584.9375 151.132812 C 587.757812 146.28125 592.179688 136.574219 590.167969 129.292969 L 586.539062 100.1875 C 586.539062 100.1875 571.464844 93.921875 569.453125 95.128906 Z M 569.453125 95.128906 "/>
<path style=" stroke:none;fill-rule:nonzero;fill:rgb(18.431373%,18.039216%,25.490196%);fill-opacity:1;" d="M 612.691406 205.3125 L 612.691406 205.355469 L 612.265625 212.484375 C 604.722656 221.488281 595.546875 228.960938 585.238281 234.539062 C 584.128906 235.144531 583.007812 235.734375 581.855469 236.28125 C 561.839844 246.015625 539.015625 248.238281 517.535156 242.519531 L 518.972656 236.433594 C 518.683594 231.730469 518.683594 227.027344 519 222.324219 C 519.328125 216.046875 520.519531 209.851562 522.558594 203.902344 C 525.765625 195.042969 529.84375 191.972656 529.84375 191.972656 L 528.503906 181.046875 L 528.417969 180.429688 L 575.859375 167.925781 L 582.925781 166.074219 C 582.925781 166.074219 583.089844 166.707031 583.488281 167.707031 C 584.59375 170.792969 586.210938 173.65625 588.265625 176.195312 C 589.113281 177.25 590.113281 178.207031 591.179688 179.046875 C 591.742188 179.496094 592.34375 179.894531 592.976562 180.238281 C 600.21875 184.28125 612.691406 205.3125 612.691406 205.3125 Z M 612.691406 205.3125 "/>
<path style=" stroke:none;fill-rule:nonzero;fill:rgb(18.431373%,18.039216%,25.490196%);fill-opacity:1;" d="M 577.148438 39.25 L 556.734375 28.515625 L 528.558594 32.902344 L 522.722656 58.785156 L 537.25 58.222656 L 541.304688 48.722656 L 541.304688 58.074219 L 547.984375 57.8125 L 551.875 42.675781 L 554.308594 58.785156 L 578.121094 58.304688 Z M 577.148438 39.25 "/>
</g>
</svg>
